<svg xmlns="http://www.w3.org/2000/svg" xmlns:xlink="http://www.w3.org/1999/xlink" width="1000" zoomAndPan="magnify" viewBox="0 0 750 374.999991" height="500" preserveAspectRatio="xMidYMid meet" version="1.0"><defs><g/></defs><g fill="#ff00ff" fill-opacity="1"><g transform="translate(13.843036, 240.147457)"><g><path d="M 58.601562 0.152344 C 88.363281 0.152344 112.578125 -24.058594 112.578125 -53.820312 C 112.578125 -83.585938 88.363281 -107.949219 58.601562 -107.949219 L 4.625 -107.949219 L 4.625 0.152344 Z M 58.601562 0.152344 "/></g></g></g><g fill="#ff00ff" fill-opacity="1"><g transform="translate(129.18986, 240.147457)"><g><path d="M 4.472656 -107.949219 L 4.472656 0 L 60.605469 0 L 60.605469 -107.949219 Z M 4.472656 -107.949219 "/></g></g></g><g fill="#ff00ff" fill-opacity="1"><g transform="translate(194.419417, 240.147457)"><g><path d="M 4.625 -110.570312 L 4.625 0 L 112.578125 0 L 112.578125 -107.949219 L 58.910156 -107.949219 L 58.910156 -68.164062 Z M 4.625 -110.570312 "/></g></g></g><g fill="#ff00ff" fill-opacity="1"><g transform="translate(311.30831, 240.147457)"><g><path d="M 59.0625 -111.652344 C 27.296875 -111.652344 1.542969 -85.898438 1.542969 -54.128906 C 1.542969 -22.359375 27.296875 3.394531 59.0625 3.394531 C 90.832031 3.394531 116.585938 -22.359375 116.585938 -54.128906 C 116.585938 -85.898438 90.832031 -111.652344 59.0625 -111.652344 Z M 59.0625 -111.652344 "/></g></g></g><g fill="#ff00ff" fill-opacity="1"><g transform="translate(430.201865, 240.147457)"><g><path d="M 132.933594 -108.105469 L -3.546875 -108.105469 L 64.769531 7.554688 Z M 132.933594 -108.105469 "/></g></g></g><g fill="#ff00ff" fill-opacity="1"><g transform="translate(559.427307, 240.147457)"><g><path d="M 4.472656 -107.949219 L 4.472656 0 L 60.605469 0 L 60.605469 -107.949219 Z M 4.472656 -107.949219 "/></g></g></g><g fill="#ff00ff" fill-opacity="1"><g transform="translate(624.65684, 240.147457)"><g><path d="M 0.308594 -108.105469 L 30.535156 -54.128906 L 0.308594 -0.152344 L 114.734375 -0.152344 L 84.511719 -54.128906 L 114.734375 -108.105469 Z M 0.308594 -108.105469 "/></g></g></g><g fill="#00ffff" fill-opacity="1"><g transform="translate(9.987511, 240.147457)"><g><path d="M 58.601562 0.152344 C 88.363281 0.152344 112.578125 -24.058594 112.578125 -53.820312 C 112.578125 -83.585938 88.363281 -107.949219 58.601562 -107.949219 L 4.625 -107.949219 L 4.625 0.152344 Z M 58.601562 0.152344 "/></g></g></g><g fill="#00ffff" fill-opacity="1"><g transform="translate(125.334335, 240.147457)"><g><path d="M 4.472656 -107.949219 L 4.472656 0 L 60.605469 0 L 60.605469 -107.949219 Z M 4.472656 -107.949219 "/></g></g></g><g fill="#00ffff" fill-opacity="1"><g transform="translate(190.563892, 240.147457)"><g><path d="M 4.625 -110.570312 L 4.625 0 L 112.578125 0 L 112.578125 -107.949219 L 58.910156 -107.949219 L 58.910156 -68.164062 Z M 4.625 -110.570312 "/></g></g></g><g fill="#00ffff" fill-opacity="1"><g transform="translate(307.452785, 240.147457)"><g><path d="M 59.0625 -111.652344 C 27.296875 -111.652344 1.542969 -85.898438 1.542969 -54.128906 C 1.542969 -22.359375 27.296875 3.394531 59.0625 3.394531 C 90.832031 3.394531 116.585938 -22.359375 116.585938 -54.128906 C 116.585938 -85.898438 90.832031 -111.652344 59.0625 -111.652344 Z M 59.0625 -111.652344 "/></g></g></g><g fill="#00ffff" fill-opacity="1"><g transform="translate(426.34634, 240.147457)"><g><path d="M 132.933594 -108.105469 L -3.546875 -108.105469 L 64.769531 7.554688 Z M 132.933594 -108.105469 "/></g></g></g><g fill="#00ffff" fill-opacity="1"><g transform="translate(555.571781, 240.147457)"><g><path d="M 4.472656 -107.949219 L 4.472656 0 L 60.605469 0 L 60.605469 -107.949219 Z M 4.472656 -107.949219 "/></g></g></g><g fill="#00ffff" fill-opacity="1"><g transform="translate(620.801315, 240.147457)"><g><path d="M 0.308594 -108.105469 L 30.535156 -54.128906 L 0.308594 -0.152344 L 114.734375 -0.152344 L 84.511719 -54.128906 L 114.734375 -108.105469 Z M 0.308594 -108.105469 "/></g></g></g><g fill="#212121" fill-opacity="1"><g transform="translate(11.915274, 240.147457)"><g><path d="M 58.601562 0.152344 C 88.363281 0.152344 112.578125 -24.058594 112.578125 -53.820312 C 112.578125 -83.585938 88.363281 -107.949219 58.601562 -107.949219 L 4.625 -107.949219 L 4.625 0.152344 Z M 58.601562 0.152344 "/></g></g></g><g fill="#212121" fill-opacity="1"><g transform="translate(127.262098, 240.147457)"><g><path d="M 4.472656 -107.949219 L 4.472656 0 L 60.605469 0 L 60.605469 -107.949219 Z M 4.472656 -107.949219 "/></g></g></g><g fill="#212121" fill-opacity="1"><g transform="translate(192.491655, 240.147457)"><g><path d="M 4.625 -110.570312 L 4.625 0 L 112.578125 0 L 112.578125 -107.949219 L 58.910156 -107.949219 L 58.910156 -68.164062 Z M 4.625 -110.570312 "/></g></g></g><g fill="#212121" fill-opacity="1"><g transform="translate(309.380548, 240.147457)"><g><path d="M 59.0625 -111.652344 C 27.296875 -111.652344 1.542969 -85.898438 1.542969 -54.128906 C 1.542969 -22.359375 27.296875 3.394531 59.0625 3.394531 C 90.832031 3.394531 116.585938 -22.359375 116.585938 -54.128906 C 116.585938 -85.898438 90.832031 -111.652344 59.0625 -111.652344 Z M 59.0625 -111.652344 "/></g></g></g><g fill="#212121" fill-opacity="1"><g transform="translate(428.274103, 240.147457)"><g><path d="M 132.933594 -108.105469 L -3.546875 -108.105469 L 64.769531 7.554688 Z M 132.933594 -108.105469 "/></g></g></g><g fill="#212121" fill-opacity="1"><g transform="translate(557.499544, 240.147457)"><g><path d="M 4.472656 -107.949219 L 4.472656 0 L 60.605469 0 L 60.605469 -107.949219 Z M 4.472656 -107.949219 "/></g></g></g><g fill="#212121" fill-opacity="1"><g transform="translate(622.729078, 240.147457)"><g><path d="M 0.308594 -108.105469 L 30.535156 -54.128906 L 0.308594 -0.152344 L 114.734375 -0.152344 L 84.511719 -54.128906 L 114.734375 -108.105469 Z M 0.308594 -108.105469 "/></g></g></g></svg>